<?xml version="1.0" encoding="utf-8"?>
<!-- Generator: Adobe Illustrator 27.1.1, SVG Export Plug-In . SVG Version: 6.00 Build 0)  -->
<svg version="1.1" id="Capa_1" xmlns="http://www.w3.org/2000/svg" xmlns:xlink="http://www.w3.org/1999/xlink" x="0px" y="0px"
	 viewBox="0 0 115.2972 63.5181" style="enable-background:new 0 0 115.2972 63.5181;" xml:space="preserve">
<style type="text/css">
	.st0{fill:#FFFFFF;}
</style>
<g>
	
		<image style="overflow:visible;" width="125" height="126" xlink:href="AAB52337.png"  transform="matrix(1 0 0 1 20.7335 -30.9773)">
	</image>
</g>
<g>
	
		<image style="overflow:visible;" width="124" height="126" xlink:href="AAB52331.png"  transform="matrix(1 0 0 1 -30.2665 -30.9773)">
	</image>
</g>
<path class="st0" d="M59.4487,7.7588v12.8257h34.4745v11.5278c0,5.5742-4.5343,10.1085-10.1085,10.1085H60.9982v13.538h22.0889
	c13.0056,0,23.5865-10.5809,23.5865-23.5865V7.7588H59.4487z"/>
<path class="st0" d="M21.3159,36.4529h32.9835v-9.718H23.0723l0.4621-0.8979c1.6687-3.2401,4.9687-5.2524,8.6124-5.2524h22.1526
	V7.7588H31.4617c-12.5925,0-22.8377,10.2452-22.8377,22.8377v25.1623H55.043v-13.538H21.3159V36.4529z"/>
</svg>
